# xmcd CD database file generated by OrangeCD 5.1
#
# Track frame offsets:
#	150
#	14050
#	35042
#	53432
#
# Disc length: 919 seconds
#
# Revision: 0
# Processed by: cddbd v1.4PL0 Copyright (c) Steve Scherf et al.
# Submitted via: OrangeCD 5.1
#
DISCID=2d039504
DTITLE=Ingram, Jack - Electric Sampler (Promo)
DYEAR=2002
DGENRE=Country
TTITLE0=Keep On Keepin' On
TTITLE1=Fool
TTITLE2=What Makes You Say
TTITLE3=Hey You
EXTD=
EXTT0=
EXTT1=
EXTT2=
EXTT3=
PLAYORDER=
